<?xml version="1.0" standalone="no"?>
<!DOCTYPE svg PUBLIC "-//W3C//DTD SVG 20010904//EN"
 "http://www.w3.org/TR/2001/REC-SVG-20010904/DTD/svg10.dtd">
<svg version="1.0" xmlns="http://www.w3.org/2000/svg"
 width="512.000000pt" height="512.000000pt" viewBox="0 0 512.000000 512.000000"
 preserveAspectRatio="xMidYMid meet">

<g transform="translate(0.000000,512.000000) scale(0.100000,-0.100000)"
fill="#000000" stroke="none">
<path d="M1515 4974 c-444 -78 -829 -402 -980 -824 -85 -237 -97 -514 -34
-757 57 -219 157 -393 339 -589 100 -108 180 -221 241 -340 45 -90 109 -264
109 -299 0 -13 69 -15 545 -15 l544 0 11 43 c57 226 170 422 366 637 246 270
354 541 355 890 0 262 -67 482 -212 700 -197 294 -505 495 -853 555 -109 19
-322 18 -431 -1z m555 -728 c0 -2 -49 -105 -109 -230 l-110 -226 235 0 c130 0
234 -4 232 -9 -4 -11 -892 -1029 -895 -1027 -2 1 38 147 87 324 50 177 90 324
90 327 0 3 -88 5 -195 5 -107 0 -195 3 -195 7 0 3 72 181 160 395 89 214 165
400 170 413 l10 25 260 0 c143 0 260 -2 260 -4z"/>
<path d="M3826 3745 c-14 -14 -16 -43 -16 -191 l0 -174 60 0 60 0 0 163 c0
184 -7 210 -56 215 -19 2 -38 -3 -48 -13z"/>
<path d="M4386 3738 c-13 -18 -16 -55 -16 -190 l0 -168 60 0 60 0 0 174 c0
145 -3 177 -16 190 -23 24 -70 20 -88 -6z"/>
<path d="M3640 3000 c0 -121 5 -243 11 -272 36 -173 176 -325 347 -378 87 -27
217 -27 304 0 126 39 239 134 299 252 52 102 59 151 59 395 l0 223 -510 0
-510 0 0 -220z m750 0 c11 -11 20 -29 20 -40 0 -11 -9 -29 -20 -40 -19 -19
-33 -20 -240 -20 -207 0 -221 1 -240 20 -11 11 -20 29 -20 40 0 11 9 29 20 40
19 19 33 20 240 20 207 0 221 -1 240 -20z m-66 -286 c21 -20 20 -53 -1 -76
-14 -16 -34 -18 -171 -18 -168 0 -192 7 -192 56 0 49 19 54 190 54 131 0 161
-3 174 -16z"/>
<path d="M4088 1303 l-3 -868 -22 -41 c-31 -59 -106 -121 -166 -139 -44 -13
-217 -15 -1271 -15 -787 0 -1234 4 -1257 10 -133 37 -195 185 -126 302 42 73
93 97 219 107 126 10 183 36 251 111 58 65 78 123 80 242 l2 93 -57 3 -58 3 0
-79 c0 -88 -11 -132 -47 -180 -39 -52 -94 -74 -208 -82 -111 -8 -158 -26 -224
-85 -63 -57 -94 -127 -99 -221 -4 -72 -1 -88 23 -141 33 -74 92 -134 166 -168
l56 -25 1289 2 1289 3 60 29 c109 54 189 156 214 274 8 37 11 309 11 892 l0
840 -60 0 -60 0 -2 -867z"/>
<path d="M1088 1989 c-16 -9 -18 -29 -18 -177 0 -117 4 -172 12 -180 9 -9 168
-12 654 -12 l643 0 15 22 c23 33 23 303 0 336 l-15 22 -637 0 c-414 -1 -643
-4 -654 -11z"/>
<path d="M1280 1458 c1 -2 16 -46 34 -98 l34 -95 388 0 388 0 32 85 c18 47 33
91 33 98 1 9 -96 12 -454 12 -250 0 -455 -1 -455 -2z"/>
</g>
</svg>
