<?xml version="1.0" standalone="no"?>
<!DOCTYPE svg PUBLIC "-//W3C//DTD SVG 20010904//EN"
 "http://www.w3.org/TR/2001/REC-SVG-20010904/DTD/svg10.dtd">
<svg version="1.0" xmlns="http://www.w3.org/2000/svg"
 width="512.000000pt" height="512.000000pt" viewBox="0 0 512.000000 512.000000"
 preserveAspectRatio="xMidYMid meet">

<g transform="translate(0.000000,512.000000) scale(0.100000,-0.100000)"
fill="#000000" stroke="none">
<path d="M1309 5091 c-25 -26 -29 -37 -29 -85 l0 -56 -40 0 c-64 0 -102 -22
-234 -134 -114 -98 -133 -121 -151 -183 -15 -53 44 -162 97 -179 18 -5 15 -11
-30 -52 -61 -57 -79 -107 -61 -176 11 -45 73 -116 101 -116 7 0 -11 -22 -39
-49 -79 -75 -91 -150 -38 -232 29 -45 77 -68 160 -76 l65 -6 0 -83 0 -84 -200
0 c-214 0 -240 -5 -305 -54 -39 -30 -83 -111 -91 -168 -16 -114 66 -239 177
-272 29 -9 77 -16 106 -16 l53 0 0 -1280 0 -1280 -61 0 c-34 0 -79 -5 -101
-12 -48 -14 -123 -78 -147 -127 -63 -123 -12 -277 113 -344 l41 -22 1865 0
1865 0 41 22 c93 49 154 164 139 261 -10 65 -37 113 -89 159 -53 47 -101 63
-185 63 l-61 0 0 1280 0 1280 53 0 c88 0 153 25 208 80 130 130 87 343 -84
415 -28 12 -79 15 -237 15 l-200 0 0 84 0 83 65 6 c126 12 188 69 188 171 0
63 -24 109 -79 151 l-36 27 33 20 c112 68 111 218 -2 299 l-30 21 29 18 c82
50 109 151 64 236 -16 30 -236 216 -280 236 -20 10 -56 18 -79 18 l-43 0 0 56
c0 48 -4 59 -29 85 -31 31 -55 36 -94 18 -32 -15 -47 -49 -47 -109 l0 -50 -40
0 c-22 0 -56 -7 -76 -15 -45 -18 -271 -210 -288 -244 -39 -75 -25 -151 36
-206 21 -19 43 -35 50 -35 7 0 -11 -21 -39 -47 -37 -35 -54 -60 -63 -91 -20
-76 11 -153 75 -188 l35 -18 -50 -47 c-76 -73 -87 -149 -35 -230 29 -45 77
-68 160 -76 l65 -6 0 -83 0 -84 -340 0 -340 0 0 84 0 83 65 6 c94 9 149 44
174 110 27 71 6 142 -60 201 -25 23 -38 41 -31 44 26 8 70 53 86 86 34 71 15
145 -52 210 l-41 39 38 27 c51 37 75 89 69 151 -7 64 -21 84 -138 186 -144
125 -162 136 -225 141 l-55 4 0 42 c0 54 -28 108 -62 120 -63 22 -118 -34
-118 -121 l0 -43 -42 0 c-24 -1 -55 -6 -71 -13 -45 -20 -264 -209 -286 -248
-41 -72 -16 -174 54 -222 l34 -23 -40 -40 c-68 -65 -87 -139 -53 -210 16 -33
60 -78 86 -86 7 -3 -6 -21 -31 -44 -66 -59 -87 -130 -60 -201 25 -66 80 -101
174 -110 l65 -6 0 -83 0 -84 -340 0 -340 0 0 84 0 83 65 6 c83 8 131 31 160
76 52 81 41 157 -35 230 l-49 47 35 19 c63 34 94 111 74 187 -8 30 -26 57 -62
91 -28 26 -45 47 -39 47 6 0 29 16 50 35 63 57 74 148 27 219 -22 35 -241 215
-280 231 -19 8 -54 15 -76 15 l-40 0 0 50 c0 60 -15 94 -47 109 -39 18 -63 13
-94 -18z m292 -393 l98 -83 -332 -6 c-183 -3 -334 -5 -336 -3 -3 3 9 13 129
117 l65 56 139 1 138 0 99 -82z m1195 0 l97 -83 -334 -6 c-184 -3 -335 -5
-337 -3 -2 1 43 41 99 88 l103 86 137 0 137 0 98 -82z m1195 0 c54 -46 93 -84
86 -85 -37 -6 -657 -8 -655 -3 2 4 46 44 98 88 l95 81 139 1 138 0 99 -82z
m-2392 -340 l99 -83 -331 -7 c-183 -3 -334 -4 -336 -2 -2 2 12 16 30 31 18 15
63 54 99 85 l65 57 138 1 138 0 98 -82z m1195 0 l99 -83 -334 -7 c-184 -3
-335 -5 -337 -3 -1 1 43 41 100 89 l102 86 136 0 136 0 98 -82z m1198 -2 l96
-83 -336 -5 c-186 -3 -338 -5 -339 -4 -1 0 44 40 100 88 l102 87 140 0 140 0
97 -83z m-2394 -338 l98 -83 -255 -8 c-141 -4 -292 -6 -336 -5 l-80 3 103 88
103 87 134 0 134 0 99 -82z m1195 -1 l98 -82 -248 -7 c-136 -5 -288 -7 -337
-5 l-88 2 103 87 104 88 135 0 135 0 98 -83z m1194 1 l98 -83 -250 -7 c-138
-5 -289 -7 -336 -5 l-86 2 104 88 104 87 134 0 134 0 98 -82z m-2537 -353 l0
-85 -85 0 -85 0 0 85 0 85 85 0 85 0 0 -85z m1198 3 l-3 -83 -85 0 -85 0 -3
83 -3 82 91 0 91 0 -3 -82z m1192 -3 l0 -85 -85 0 -85 0 0 85 0 85 85 0 85 0
0 -85z m568 -275 c44 -41 35 -110 -18 -137 -37 -19 -3623 -19 -3660 0 -53 27
-62 96 -18 137 22 20 27 20 1848 20 1821 0 1826 0 1848 -20z m-3128 -420 c0
-94 2 -103 25 -125 16 -17 35 -25 60 -25 25 0 44 8 60 25 23 22 25 31 25 125
l0 100 509 0 509 0 4 -100 c3 -88 6 -102 28 -125 32 -35 88 -35 120 0 22 23
25 37 28 125 l4 100 509 0 509 0 0 -100 c0 -94 2 -103 25 -125 16 -17 35 -25
60 -25 25 0 44 8 60 25 23 22 25 31 25 125 l0 100 130 0 130 0 -2 -1277 -3
-1278 -1127 -3 -1126 -2 -27 -32 c-32 -38 -29 -81 11 -115 l25 -23 1264 0
1264 0 27 -24 c39 -33 39 -89 0 -122 l-27 -24 -1819 0 -1819 0 -27 24 c-39 33
-39 89 0 122 l27 24 359 0 c213 0 369 4 385 10 33 13 59 69 46 102 -19 51 -29
53 -275 58 l-231 5 -3 1278 -2 1277 130 0 130 0 0 -100z"/>
<path d="M2509 2639 c-66 -10 -143 -52 -183 -101 -68 -82 -935 -1399 -946
-1436 -16 -60 -12 -156 10 -215 29 -76 79 -130 158 -169 l67 -33 924 -3 c1006
-3 981 -4 1071 53 118 74 173 249 122 382 -25 64 -924 1414 -965 1449 -70 59
-168 87 -258 73z m122 -184 c22 -12 148 -194 489 -706 l460 -689 0 -53 c0 -67
-27 -112 -83 -137 -40 -19 -76 -20 -937 -20 -851 0 -897 1 -936 19 -55 25 -84
73 -84 139 0 50 4 58 459 741 318 477 469 694 488 705 36 20 106 20 144 1z"/>
<path d="M2523 2040 c-25 -10 -303 -467 -303 -499 0 -33 20 -68 47 -80 14 -6
84 -11 168 -11 l144 0 -94 -157 c-57 -95 -95 -169 -95 -185 0 -42 40 -82 83
-82 19 0 42 6 51 13 9 8 78 116 152 240 150 249 159 275 109 318 -25 22 -34
23 -176 23 -82 0 -149 3 -149 6 0 3 41 74 91 157 102 171 111 204 64 244 -27
24 -55 28 -92 13z"/>
</g>
</svg>
