<?xml version="1.0" standalone="no"?>
<!DOCTYPE svg PUBLIC "-//W3C//DTD SVG 20010904//EN"
 "http://www.w3.org/TR/2001/REC-SVG-20010904/DTD/svg10.dtd">
<svg version="1.0" xmlns="http://www.w3.org/2000/svg"
 width="512.000000pt" height="512.000000pt" viewBox="0 0 512.000000 512.000000"
 preserveAspectRatio="xMidYMid meet">

<g transform="translate(0.000000,512.000000) scale(0.100000,-0.100000)"
fill="#000000" stroke="none">
<path d="M2265 5095 c-25 -24 -25 -24 -25 -240 l0 -215 -200 0 -200 0 0 56 c0
81 -18 129 -67 184 -95 106 -236 108 -338 5 -57 -56 -75 -102 -75 -189 l0 -56
-93 0 -92 0 -70 -51 c-286 -208 -613 -352 -945 -414 -98 -19 -129 -28 -142
-45 -26 -32 -23 -76 8 -107 24 -23 30 -25 82 -19 110 13 258 48 392 92 146 49
407 172 535 252 l80 50 5 -100 c8 -152 -52 -138 586 -138 l534 0 0 -240 0
-240 -200 0 -200 0 0 56 c0 81 -18 129 -67 184 -95 106 -236 108 -338 5 -57
-56 -75 -102 -75 -189 l0 -56 -93 0 -92 0 -70 -51 c-286 -208 -613 -352 -945
-414 -98 -19 -129 -28 -142 -45 -26 -32 -23 -76 8 -107 24 -23 30 -25 82 -19
110 13 258 48 392 92 146 49 407 172 535 252 l80 50 5 -100 c8 -152 -52 -138
586 -138 l534 0 0 -1575 0 -1576 25 -24 c32 -33 78 -33 110 0 l25 24 0 1576 0
1575 160 0 160 0 0 -1575 0 -1576 25 -24 c32 -33 78 -33 110 0 l25 24 0 1576
0 1575 534 0 c638 0 578 -14 586 138 l5 100 80 -50 c129 -81 389 -203 535
-252 134 -44 284 -79 392 -92 52 -6 58 -4 82 19 31 31 34 75 8 107 -14 17 -44
26 -151 46 -307 57 -662 213 -936 413 l-70 51 -92 0 -93 0 0 56 c0 81 -18 129
-67 184 -95 106 -236 108 -338 5 -57 -56 -75 -102 -75 -189 l0 -56 -200 0
-200 0 0 240 0 240 534 0 c638 0 578 -14 586 138 l5 100 80 -50 c129 -81 389
-203 535 -252 134 -44 284 -79 392 -92 52 -6 58 -4 82 19 31 31 34 75 8 107
-14 17 -44 26 -151 46 -307 57 -662 213 -936 413 l-70 51 -92 0 -93 0 0 56 c0
81 -18 129 -67 184 -95 106 -236 108 -338 5 -57 -56 -75 -102 -75 -189 l0 -56
-200 0 -200 0 0 215 c0 216 0 216 -25 240 l-24 25 -271 0 -271 0 -24 -25z
m455 -295 l0 -160 -160 0 -160 0 0 160 0 160 160 0 160 0 0 -160z m-1065 -25
c21 -20 25 -34 25 -80 l0 -55 -80 0 -80 0 0 55 c0 67 29 105 80 105 19 0 40
-9 55 -25z m1920 0 c21 -20 25 -34 25 -80 l0 -55 -80 0 -80 0 0 55 c0 67 29
105 80 105 19 0 40 -9 55 -25z m265 -375 l0 -80 -1280 0 -1280 0 0 80 0 80
1280 0 1280 0 0 -80z m-1120 -480 l0 -240 -160 0 -160 0 0 240 0 240 160 0
160 0 0 -240z m-1065 -105 c21 -20 25 -34 25 -80 l0 -55 -80 0 -80 0 0 55 c0
67 29 105 80 105 19 0 40 -9 55 -25z m1920 0 c21 -20 25 -34 25 -80 l0 -55
-80 0 -80 0 0 55 c0 67 29 105 80 105 19 0 40 -9 55 -25z m265 -375 l0 -80
-1280 0 -1280 0 0 80 0 80 1280 0 1280 0 0 -80z"/>
<path d="M905 2775 c-24 -23 -25 -29 -25 -160 l0 -135 -80 0 -80 0 0 55 c0 67
-29 105 -80 105 -51 0 -80 -38 -80 -105 l0 -55 -95 0 c-88 0 -98 -2 -120 -25
-33 -32 -33 -78 0 -110 l24 -25 256 0 255 0 0 -160 0 -160 -80 0 -80 0 0 55
c0 67 -29 105 -80 105 -51 0 -80 -38 -80 -105 l0 -55 -95 0 c-88 0 -98 -2
-120 -25 -33 -32 -33 -78 0 -110 l24 -25 256 0 255 0 0 -895 0 -896 25 -24
c32 -33 78 -33 110 0 l25 24 0 896 0 895 80 0 80 0 0 -895 0 -896 25 -24 c32
-33 78 -33 110 0 l25 24 0 896 0 895 255 0 256 0 24 25 c16 15 25 36 25 55 0
51 -38 80 -105 80 l-55 0 0 55 c0 67 -29 105 -80 105 -51 0 -80 -38 -80 -105
l0 -55 -120 0 -120 0 0 160 0 160 255 0 256 0 24 25 c33 32 33 78 0 110 -20
21 -34 25 -80 25 l-55 0 0 55 c0 67 -29 105 -80 105 -51 0 -80 -38 -80 -105
l0 -55 -120 0 -120 0 0 135 c0 131 -1 137 -25 160 -24 25 -26 25 -215 25 -189
0 -191 0 -215 -25z m295 -215 l0 -80 -80 0 -80 0 0 80 0 80 80 0 80 0 0 -80z
m0 -400 l0 -160 -80 0 -80 0 0 160 0 160 80 0 80 0 0 -160z"/>
<path d="M3785 2775 c-24 -23 -25 -29 -25 -160 l0 -135 -120 0 -120 0 0 55 c0
67 -29 105 -80 105 -51 0 -80 -38 -80 -105 l0 -55 -55 0 c-67 0 -105 -29 -105
-80 0 -19 9 -40 25 -55 l24 -25 256 0 255 0 0 -160 0 -160 -120 0 -120 0 0 55
c0 67 -29 105 -80 105 -51 0 -80 -38 -80 -105 l0 -55 -55 0 c-67 0 -105 -29
-105 -80 0 -19 9 -40 25 -55 l24 -25 256 0 255 0 0 -895 0 -896 25 -24 c32
-33 78 -33 110 0 l25 24 0 896 0 895 80 0 80 0 0 -895 0 -896 25 -24 c32 -33
78 -33 110 0 l25 24 0 896 0 895 255 0 256 0 24 25 c16 15 25 36 25 55 0 19
-9 40 -25 55 -22 23 -32 25 -120 25 l-95 0 0 55 c0 67 -29 105 -80 105 -51 0
-80 -38 -80 -105 l0 -55 -80 0 -80 0 0 160 0 160 255 0 256 0 24 25 c16 15 25
36 25 55 0 19 -9 40 -25 55 -22 23 -32 25 -120 25 l-95 0 0 55 c0 67 -29 105
-80 105 -51 0 -80 -38 -80 -105 l0 -55 -80 0 -80 0 0 135 c0 131 -1 137 -25
160 -24 25 -26 25 -215 25 -189 0 -191 0 -215 -25z m295 -215 l0 -80 -80 0
-80 0 0 80 0 80 80 0 80 0 0 -80z m0 -400 l0 -160 -80 0 -80 0 0 160 0 160 80
0 80 0 0 -160z"/>
</g>
</svg>
