<?xml version="1.0" standalone="no"?>
<!DOCTYPE svg PUBLIC "-//W3C//DTD SVG 20010904//EN"
 "http://www.w3.org/TR/2001/REC-SVG-20010904/DTD/svg10.dtd">
<svg version="1.0" xmlns="http://www.w3.org/2000/svg"
 width="512.000000pt" height="512.000000pt" viewBox="0 0 512.000000 512.000000"
 preserveAspectRatio="xMidYMid meet">

<g transform="translate(0.000000,512.000000) scale(0.100000,-0.100000)"
fill="#000000" stroke="none">
<path d="M1185 4908 c-401 -115 -738 -217 -747 -225 -23 -21 -24 -86 -1 -104
12 -10 65 -15 202 -19 l186 -5 3 -76 3 -76 -82 -5 c-74 -4 -85 -8 -106 -32
-22 -26 -23 -33 -23 -201 0 -169 1 -175 24 -202 l24 -28 236 0 c306 0 281 -20
281 230 0 227 1 226 -124 233 l-81 5 0 78 0 79 440 0 440 0 -2 -351 -3 -352
-694 -198 c-381 -109 -704 -205 -717 -214 -32 -21 -34 -83 -3 -111 19 -17 41
-19 205 -22 l184 -3 0 -80 0 -79 -84 0 c-79 0 -86 -2 -105 -26 -19 -25 -21
-40 -21 -195 0 -179 6 -209 47 -228 15 -7 104 -11 243 -11 217 0 219 0 247 24
l28 24 3 153 c5 245 -1 259 -128 259 l-80 0 0 80 0 80 440 0 440 0 0 -378 0
-378 -295 -1030 c-162 -566 -298 -1037 -301 -1046 -5 -15 -18 -18 -93 -18
-129 0 -131 -3 -131 -175 l0 -135 -89 0 c-74 0 -92 -3 -115 -21 -36 -28 -36
-80 0 -108 l27 -21 1697 0 1697 0 27 21 c36 28 36 80 0 108 -23 18 -41 21
-115 21 l-89 0 0 135 c0 172 -2 175 -131 175 -75 0 -88 3 -93 18 -3 9 -139
480 -301 1046 l-295 1030 0 378 0 378 440 0 440 0 0 -80 0 -80 -80 0 c-127 0
-133 -14 -128 -259 l3 -153 28 -24 c28 -24 30 -24 247 -24 139 0 228 4 243 11
41 19 47 49 47 228 0 155 -2 170 -21 195 -19 24 -26 26 -105 26 l-84 0 0 79 0
80 184 3 c164 3 186 5 205 22 31 28 29 90 -3 111 -13 9 -336 105 -717 214
l-694 198 -3 352 -2 351 440 0 440 0 0 -79 0 -78 -81 -5 c-125 -7 -124 -6
-124 -233 0 -250 -25 -230 281 -230 l236 0 24 28 c23 27 24 33 24 202 0 168
-1 175 -23 201 -21 24 -32 28 -106 32 l-82 5 3 76 3 76 186 5 c137 4 190 9
202 19 23 18 22 83 0 104 -10 8 -350 110 -755 226 l-738 211 -637 -1 -638 -1
-730 -210z m1925 -68 l0 -130 -550 0 -550 0 0 130 0 130 550 0 550 0 0 -130z
m-1250 -15 l0 -115 -402 1 c-222 0 -398 3 -393 5 21 9 770 223 783 223 9 1 12
-28 12 -114z m1805 4 c214 -61 392 -113 394 -115 2 -2 -176 -4 -397 -4 l-402
0 0 115 c0 63 3 115 7 115 4 0 183 -50 398 -111z m-557 -576 c1 -167 -1 -303
-5 -303 -12 0 -902 594 -903 603 0 4 204 6 453 5 l452 -3 3 -302z m-638 -66
c239 -159 439 -293 445 -298 5 -5 -185 -9 -448 -9 l-457 0 0 306 c0 241 3 304
13 298 6 -4 208 -138 447 -297z m-1432 -24 l-3 -78 -130 0 -130 0 -3 78 -3 77
136 0 136 0 -3 -77z m3310 0 l-3 -78 -130 0 -130 0 -3 78 -3 77 136 0 136 0
-3 -77z m-1243 -568 l0 -130 -545 0 -545 0 -3 119 c-1 66 0 126 2 133 4 11
107 13 548 11 l543 -3 0 -130z m-1245 -15 l0 -120 -412 1 c-227 0 -406 3 -398
7 18 7 792 230 803 231 4 1 7 -53 7 -119z m1825 0 c214 -62 392 -113 394 -116
2 -2 -181 -4 -407 -4 l-412 0 0 121 c0 110 2 120 18 115 9 -3 192 -55 407
-116z m-575 -570 c0 -195 -4 -300 -10 -300 -9 0 -872 570 -894 591 -6 5 184 9
447 9 l457 0 0 -300z m-635 -70 l450 -300 -457 0 -458 0 0 300 c0 165 3 300 8
300 4 0 210 -135 457 -300z m-1437 -17 l-3 -78 -132 -3 -133 -3 0 81 0 80 135
0 136 0 -3 -77z m3312 -3 l0 -81 -132 3 -133 3 -3 78 -3 77 136 0 135 0 0 -80z
m-1421 -444 c-31 -28 -358 -250 -369 -250 -11 0 -338 222 -369 250 -2 2 164 4
369 4 205 0 371 -2 369 -4z m-652 -244 c149 -103 152 -106 130 -121 -170 -121
-642 -449 -643 -448 -2 1 47 176 108 389 l111 387 71 -51 c39 -27 139 -97 223
-156z m977 -202 c58 -201 104 -366 102 -367 -1 -1 -474 327 -643 448 -21 15
-16 19 200 171 204 142 223 153 229 134 5 -12 55 -185 112 -386z m-344 -241
l334 -234 -342 -3 c-188 -1 -496 -1 -684 0 l-342 3 339 237 c187 131 345 236
350 234 6 -2 161 -109 345 -237z m250 -394 c0 -3 -135 -72 -300 -155 l-300
-150 -300 150 c-165 83 -300 152 -300 155 0 3 270 5 600 5 330 0 600 -2 600
-5z m-1117 -211 l352 -177 -475 -237 c-261 -131 -476 -237 -478 -235 -6 5 233
825 240 825 5 0 167 -79 361 -176z m1520 -235 c65 -227 116 -413 115 -414 -2
-2 -217 104 -478 235 l-475 237 350 176 c193 97 355 176 360 176 6 1 64 -184
128 -410z m-540 -256 l452 -228 -569 -3 c-569 -2 -570 -2 -593 -24 -33 -30
-31 -80 3 -107 27 -21 33 -21 820 -21 l794 0 0 -80 0 -80 -1370 0 -1370 0 0
80 0 80 430 0 431 0 24 25 c31 30 33 75 4 101 -19 17 -43 20 -228 24 l-206 5
450 227 c248 125 456 227 463 227 6 1 216 -101 465 -226z"/>
</g>
</svg>
